<?xml version="1.0" encoding="UTF-8"?>
<svg width="20px" height="20px" viewBox="0 0 20 20" version="1.1" xmlns="http://www.w3.org/2000/svg" xmlns:xlink="http://www.w3.org/1999/xlink">
    <!-- Generator: Sketch 42 (36781) - http://www.bohemiancoding.com/sketch -->
    <title>facebook-logo</title>
    <desc>Created with Sketch.</desc>
    <defs></defs>
    <g id="Page-1" stroke="none" stroke-width="1" fill="none" fill-rule="evenodd">
        <g id="RESPONSE-SCREEN---YES---modal-open" transform="translate(-343.000000, -493.000000)" fill="#355C7D">
            <g id="Modal" transform="translate(253.000000, 196.000000)">
                <g id="Logos-+-Social-Links" transform="translate(76.000000, 127.000000)">
                    <g id="Pfizer">
                        <g id="Social-Links" transform="translate(14.000000, 132.000000)">
                            <g id="fb---pfizer" transform="translate(0.000000, 34.000000)">
                                <path d="M18,4 L2,4 C0.9,4 0,4.9 0,6 L0,22 C0,23.1 0.9,24 2,24 L18,24 C19.1,24 20,23.1 20,22 L20,6 C20,4.9 19.1,4 18,4 Z M17,6 L17,9 L15,9 C14.4,9 14,9.4 14,10 L14,12 L17,12 L17,15 L14,15 L14,22 L11,22 L11,15 L9,15 L9,12 L11,12 L11,9.5 C11,7.6 12.6,6 14.5,6 L17,6 Z" id="facebook-logo"></path>
                            </g>
                        </g>
                    </g>
                </g>
            </g>
        </g>
    </g>
</svg>