<?xml version="1.0" encoding="UTF-8"?>
<svg width="20px" height="20px" viewBox="0 0 20 20" version="1.1" xmlns="http://www.w3.org/2000/svg" xmlns:xlink="http://www.w3.org/1999/xlink">
    <!-- Generator: Sketch 42 (36781) - http://www.bohemiancoding.com/sketch -->
    <title>twitter-logo</title>
    <desc>Created with Sketch.</desc>
    <defs></defs>
    <g id="Page-1" stroke="none" stroke-width="1" fill="none" fill-rule="evenodd">
        <g id="RESPONSE-SCREEN---YES---modal-open" transform="translate(-343.000000, -459.000000)" fill="#2BA0E4">
            <g id="Modal" transform="translate(253.000000, 196.000000)">
                <g id="Logos-+-Social-Links" transform="translate(76.000000, 127.000000)">
                    <g id="Pfizer">
                        <g id="Social-Links" transform="translate(14.000000, 132.000000)">
                            <g id="twitter---pfizer">
                                <path d="M18,4 L2,4 C0.9,4 0,4.9 0,6 L0,22 C0,23.1 0.9,24 2,24 L18,24 C19.1,24 20,23.1 20,22 L20,6 C20,4.9 19.1,4 18,4 Z M15.7,11.3 C15.6,15.9 12.7,19.1 8.3,19.299999 C6.500001,19.4 5.200001,18.799999 4,18.099998 C5.300001,18.299999 7,17.799998 7.900002,16.999998 C6.600001,16.899998 5.800002,16.199998 5.400002,15.1 C5.800002,15.2 6.200002,15.1 6.500002,15.1 C5.300002,14.7 4.500002,14 4.400002,12.4 C4.700002,12.6 5.100002,12.7 5.500002,12.7 C4.600002,12.2 4.000002,10.3 4.700002,9.1 C6.000002,10.5 7.600002,11.7 10.2,11.9 C9.5,9.1 13.3,7.6 14.8,9.5 C15.5,9.4 16,9.1 16.5,8.9 C16.3,9.6 15.9,10 15.4,10.4 C15.9,10.3 16.4,10.2 16.8,10 C16.7,10.5 16.2,10.9 15.7,11.3 Z" id="twitter-logo"></path>
                            </g>
                        </g>
                    </g>
                </g>
            </g>
        </g>
    </g>
</svg>